<?xml version="1.0" encoding="UTF-8" standalone="no"?><!-- Generator: Gravit.io --><svg xmlns="http://www.w3.org/2000/svg" xmlns:xlink="http://www.w3.org/1999/xlink" style="isolation:isolate" viewBox="0 0 64 64" width="64pt" height="64pt"><defs><clipPath id="_clipPath_mUov4leFqeRqfNaR9L3TdpoXStKTbHDO"><rect width="64" height="64"/></clipPath></defs><g clip-path="url(#_clipPath_mUov4leFqeRqfNaR9L3TdpoXStKTbHDO)"><g><g><g style="opacity:0.2;"><g opacity="0.2"><path d=" M 12 25 L 12 50 C 12 52.209 13.791 54 16 54 L 48 54 C 50.209 54 52 52.209 52 50 L 52 25 L 12 25 Z " fill="rgb(35,31,32)"/></g></g><g><mask id="_mask_oxRIzRG32YlHLSFJ8GdImlOiduXStEJG" x="-200%" y="-200%" width="400%" height="400%"><rect x="-200%" y="-200%" width="400%" height="400%" style="fill:white;"/><path d=" M 12 23 L 12 48 C 12 50.209 13.791 52 16 52 L 48 52 C 50.209 52 52 50.209 52 48 L 52 23 L 12 23 Z " fill="black" stroke="none"/></mask><path d=" M 12 23 L 12 48 C 12 50.209 13.791 52 16 52 L 48 52 C 50.209 52 52 50.209 52 48 L 52 23 L 12 23 Z " fill="rgb(255,255,255)"/><path d=" M 12 23 L 12 48 C 12 50.209 13.791 52 16 52 L 48 52 C 50.209 52 52 50.209 52 48 L 52 23 L 12 23 Z " fill="rgb(255,255,255)" mask="url(#_mask_oxRIzRG32YlHLSFJ8GdImlOiduXStEJG)" vector-effect="non-scaling-stroke" stroke-width="2" stroke="rgb(140,140,140)" stroke-linejoin="miter" stroke-linecap="butt" stroke-miterlimit="4"/></g><g style="opacity:0.2;"><g opacity="0.2"><path d=" M 48 14 L 16 14 C 13.791 14 12 15.791 12 18 L 12 25 L 52 25 L 52 18 C 52 15.791 50.209 14 48 14 Z " fill="rgb(2,2,2)"/></g></g><g><path d=" M 48.835 11.438 L 15.199 11.438 C 12.877 11.438 10.994 13.32 10.994 15.642 L 10.994 23 L 53.04 23 L 53.04 15.642 C 53.04 13.32 51.157 11.438 48.835 11.438 Z " fill="rgb(5,40,108)"/></g><g style="opacity:0.2;"><g opacity="0.2"><path d=" M 20 21 C 18.895 21 18 20.105 18 19 L 18 12 C 18 10.895 18.895 10 20 10 L 20 10 C 21.105 10 22 10.895 22 12 L 22 19 C 22 20.105 21.105 21 20 21 L 20 21 Z " fill="rgb(35,31,32)"/></g></g><g style="opacity:0.2;"><g opacity="0.2"><path d=" M 45 21 C 43.895 21 43 20.105 43 19 L 43 12 C 43 10.895 43.895 10 45 10 L 45 10 C 46.105 10 47 10.895 47 12 L 47 19 C 47 20.105 46.105 21 45 21 L 45 21 Z " fill="rgb(35,31,32)"/></g></g><g><path d=" M 20 19 C 18.895 19 18 18.105 18 17 L 18 10 C 18 8.895 18.895 8 20 8 L 20 8 C 21.105 8 22 8.895 22 10 L 22 17 C 22 18.105 21.105 19 20 19 L 20 19 Z " fill="rgb(224,224,209)"/></g><g><path d=" M 45 19 C 43.895 19 43 18.105 43 17 L 43 10 C 43 8.895 43.895 8 45 8 L 45 8 C 46.105 8 47 8.895 47 10 L 47 17 C 47 18.105 46.105 19 45 19 L 45 19 Z " fill="rgb(224,224,209)"/></g></g></g></g></svg>