<?xml version="1.0" encoding="UTF-8" standalone="no"?><!-- Generator: Gravit.io --><svg xmlns="http://www.w3.org/2000/svg" xmlns:xlink="http://www.w3.org/1999/xlink" style="isolation:isolate" viewBox="0 0 400 400" width="400pt" height="400pt"><defs><clipPath id="_clipPath_JEaawvZKaJzaoCPubGbjN7j8Q6GiH8FJ"><rect width="400" height="400"/></clipPath></defs><g clip-path="url(#_clipPath_JEaawvZKaJzaoCPubGbjN7j8Q6GiH8FJ)"><g filter="url(#IS45GAKk8KAeBT0Z45KSOy4TSUm3Fhvu)"><line x1="98.985" y1="261.147" x2="84.583" y2="234.655"/><path d=" M 113.094 258.387 L 98.712 231.895 C 95.882 226.68 88.955 223.078 80.7 224.665 C 73.655 226.045 67.625 232.144 70.474 237.401 L 84.857 263.893 C 87.686 269.108 94.614 272.71 102.869 271.123 C 109.913 269.743 115.943 263.644 113.094 258.387 Z " fill="rgb(46,167,224)"/><line x1="173.063" y1="261.147" x2="158.68" y2="234.655"/><path d=" M 187.172 258.401 L 172.789 231.909 C 169.96 226.693 163.032 223.092 154.777 224.679 C 147.733 226.059 141.703 232.157 144.552 237.414 L 158.934 263.906 C 161.764 269.122 168.691 272.723 176.946 271.137 C 183.991 269.757 190.021 263.658 187.172 258.401 Z " fill="rgb(46,167,224)"/><line x1="247.14" y1="261.147" x2="232.758" y2="234.655"/><path d=" M 261.249 258.401 L 246.867 231.909 C 244.037 226.693 237.109 223.092 228.855 224.679 C 221.81 226.059 215.78 232.157 218.629 237.414 L 233.011 263.906 C 235.841 269.122 242.769 272.723 251.023 271.137 C 258.068 269.757 264.098 263.658 261.249 258.401 Z " fill="rgb(46,167,224)"/><line x1="131.126" y1="320.312" x2="116.724" y2="293.82"/><path d=" M 145.235 317.567 L 130.833 291.061 C 128.003 285.845 121.076 282.244 112.821 283.831 C 105.776 285.21 99.746 291.309 102.595 296.566 L 116.978 323.058 C 119.807 328.274 126.735 331.875 134.99 330.288 C 142.034 328.909 148.064 322.81 145.215 317.553 L 145.235 317.567 Z " fill="rgb(46,167,224)"/><line x1="205.203" y1="320.312" x2="190.801" y2="293.82"/><path d=" M 219.312 317.567 L 204.93 291.061 C 202.1 285.845 195.173 282.244 186.918 283.831 C 179.873 285.21 173.843 291.309 176.692 296.566 L 191.075 323.058 C 193.904 328.274 200.832 331.875 209.087 330.288 C 216.131 328.909 222.161 322.81 219.312 317.553 L 219.312 317.567 Z " fill="rgb(46,167,224)"/><line x1="279.28" y1="320.312" x2="264.879" y2="293.82"/><path d=" M 293.389 317.567 L 279.007 291.061 C 276.178 285.845 269.25 282.244 260.995 283.831 C 253.951 285.21 247.921 291.309 250.77 296.566 L 265.152 323.058 C 267.982 328.274 274.909 331.875 283.164 330.288 C 290.209 328.909 296.239 322.81 293.389 317.553 L 293.389 317.567 Z " fill="rgb(46,167,224)"/><line x1="163.247" y1="379.478" x2="148.864" y2="352.986"/><path d=" M 177.375 376.732 L 162.993 350.24 C 160.163 345.025 153.236 341.423 144.981 343.01 C 137.936 344.39 131.906 350.489 134.755 355.746 L 149.138 382.238 C 151.967 387.453 158.895 391.054 167.15 389.468 C 174.194 388.088 180.224 381.989 177.375 376.732 Z " fill="rgb(46,167,224)"/><line x1="237.324" y1="379.478" x2="222.942" y2="352.986"/><path d=" M 251.453 376.732 L 237.07 350.24 C 234.241 345.025 227.313 341.423 219.058 343.01 C 212.014 344.39 205.984 350.489 208.833 355.746 L 223.215 382.238 C 226.045 387.453 232.972 391.054 241.227 389.468 C 248.272 388.088 254.302 381.989 251.453 376.732 Z " fill="rgb(46,167,224)"/><line x1="311.421" y1="379.478" x2="297.019" y2="352.986"/><path d=" M 325.53 376.732 L 311.148 350.24 C 308.318 345.025 301.39 341.423 293.136 343.01 C 286.091 344.39 280.061 350.489 282.91 355.746 L 297.292 382.238 C 300.122 387.453 307.05 391.054 315.304 389.468 C 322.349 388.088 328.379 381.989 325.53 376.732 Z " fill="rgb(46,167,224)"/></g><defs><filter id="IS45GAKk8KAeBT0Z45KSOy4TSUm3Fhvu" x="-200%" y="-200%" width="400%" height="400%" filterUnits="objectBoundingBox" color-interpolation-filters="sRGB"><feGaussianBlur xmlns="http://www.w3.org/2000/svg" in="SourceGraphic" stdDeviation="2.146804531419514"/><feOffset xmlns="http://www.w3.org/2000/svg" dx="0" dy="0" result="pf_100_offsetBlur"/><feFlood xmlns="http://www.w3.org/2000/svg" flood-color="#000000" flood-opacity="0.65"/><feComposite xmlns="http://www.w3.org/2000/svg" in2="pf_100_offsetBlur" operator="in" result="pf_100_dropShadow"/><feBlend xmlns="http://www.w3.org/2000/svg" in="SourceGraphic" in2="pf_100_dropShadow" mode="normal"/></filter></defs><g><g><g><defs><filter id="TK21CowMyqvF50vZJITng5Sd49lsqmzP" x="-200%" y="-200%" width="400%" height="400%" filterUnits="objectBoundingBox" color-interpolation-filters="sRGB"><feGaussianBlur xmlns="http://www.w3.org/2000/svg" in="SourceGraphic" stdDeviation="2.146804531419514"/><feOffset xmlns="http://www.w3.org/2000/svg" dx="0" dy="0" result="pf_100_offsetBlur"/><feFlood xmlns="http://www.w3.org/2000/svg" flood-color="#000000" flood-opacity="0.65"/><feComposite xmlns="http://www.w3.org/2000/svg" in2="pf_100_offsetBlur" operator="in" result="pf_100_dropShadow"/><feBlend xmlns="http://www.w3.org/2000/svg" in="SourceGraphic" in2="pf_100_dropShadow" mode="normal"/></filter></defs><g filter="url(#TK21CowMyqvF50vZJITng5Sd49lsqmzP)"><path d=" M 314.921 18.355 L 315.612 14.74 C 315.9 13.236 314.914 11.78 313.409 11.492 C 311.905 11.205 310.449 12.194 310.161 13.698 L 309.474 17.291 C 266.189 10.086 225.472 34.976 218.086 73.603 L 217.669 75.784 L 224.09 77.012 L 224.678 75.114 C 227.375 66.406 238.458 61.297 249.909 63.487 C 261.363 65.677 269.777 74.514 269.071 83.602 L 268.917 85.583 L 274.07 86.569 L 274.658 84.67 C 277.266 76.226 287.774 71.188 298.85 72.886 L 283.986 150.626 C 283.009 155.737 278.056 159.098 272.945 158.12 C 267.84 157.144 264.476 152.193 265.453 147.082 L 261.087 146.248 C 259.65 153.762 264.596 161.047 272.111 162.484 C 279.626 163.92 286.91 158.975 288.347 151.46 L 303.177 73.899 C 312.906 76.998 319.689 84.966 319.044 93.156 L 318.887 95.137 L 324.043 96.123 L 324.628 94.224 C 327.321 85.516 338.402 80.407 349.859 82.597 C 361.316 84.788 369.73 93.624 369.018 102.712 L 368.866 104.693 L 377.59 106.361 L 378.007 104.18 C 385.321 65.879 357.201 28.034 314.921 18.355 Z  M 373.491 101.056 C 373.185 90.343 363.747 80.734 350.688 78.237 C 339.243 76.049 328.361 79.965 322.996 87.598 C 320.825 78.524 312.167 70.872 300.711 68.681 C 289.262 66.492 278.391 70.414 273.027 78.044 C 270.856 68.973 262.193 61.316 250.742 59.127 C 240.216 57.114 230.177 60.265 224.459 66.714 C 235.196 34.352 272.139 14.62 310.831 22.018 C 351.69 29.83 379.574 65.039 374.011 101.155 L 373.491 101.056 L 373.491 101.056 Z " fill="rgb(94,94,94)"/></g></g></g><g filter="url(#ixm0S06bHEstTNALiPoEABy0igcO3uFP)"><path d=" M 335.587 221.049 C 335.587 192.107 317.712 167.38 292.415 157.198 C 272.373 108.185 239.991 88.268 200.339 88.268 C 163.067 88.268 130.757 109.51 114.917 140.583 C 89.715 129.852 61.3 147.675 60.253 175.278 C 37.313 183.367 20.836 205.172 20.836 230.887 C 20.836 263.482 47.261 289.899 79.848 289.899 L 276.568 289.899 C 276.568 289.906 335.587 278.956 335.587 221.049 Z " fill="rgb(255,255,255)"/><g><g><path d=" M 135.234 171.432 C 141.245 171.432 146.118 166.559 146.118 160.548 C 146.118 154.537 141.245 149.664 135.234 149.664 C 129.223 149.664 124.351 154.537 124.351 160.548 C 124.351 166.559 129.223 171.432 135.234 171.432 L 135.234 171.432 Z  M 233.189 171.432 C 239.2 171.432 244.073 166.559 244.073 160.548 C 244.073 154.537 239.2 149.664 233.189 149.664 C 227.178 149.664 222.305 154.537 222.305 160.548 C 222.305 166.559 227.178 171.432 233.189 171.432 L 233.189 171.432 Z  M 184.008 236.735 C 146.118 236.735 124.351 258.503 124.351 258.503 L 124.351 247.619 C 124.351 247.619 146.118 225.851 184.008 225.851 C 221.898 225.851 244.073 247.619 244.073 247.619 L 244.073 258.503 C 244.073 258.503 221.898 236.735 184.008 236.735 L 184.008 236.735 Z " fill-rule="evenodd" fill="rgb(94,94,94)"/></g></g></g><defs><filter id="ixm0S06bHEstTNALiPoEABy0igcO3uFP" x="-200%" y="-200%" width="400%" height="400%" filterUnits="objectBoundingBox" color-interpolation-filters="sRGB"><feGaussianBlur xmlns="http://www.w3.org/2000/svg" in="SourceGraphic" stdDeviation="2.146804531419514"/><feOffset xmlns="http://www.w3.org/2000/svg" dx="0" dy="0" result="pf_100_offsetBlur"/><feFlood xmlns="http://www.w3.org/2000/svg" flood-color="#000000" flood-opacity="0.65"/><feComposite xmlns="http://www.w3.org/2000/svg" in2="pf_100_offsetBlur" operator="in" result="pf_100_dropShadow"/><feBlend xmlns="http://www.w3.org/2000/svg" in="SourceGraphic" in2="pf_100_dropShadow" mode="normal"/></filter></defs></g></g></svg>