<?xml version="1.0" encoding="UTF-8" standalone="no"?>
<!DOCTYPE svg PUBLIC "-//W3C//DTD SVG 1.1//EN" "http://www.w3.org/Graphics/SVG/1.1/DTD/svg11.dtd">
<svg width="100%" height="100%" viewBox="0 0 3934 3255" version="1.1" xmlns="http://www.w3.org/2000/svg" xmlns:xlink="http://www.w3.org/1999/xlink" xml:space="preserve" xmlns:serif="http://www.serif.com/" style="fill-rule:evenodd;clip-rule:evenodd;stroke-linejoin:round;stroke-miterlimit:2;">
    <g id="Layer4">
        <path d="M2731.6,898.197C2731.6,898.197 2433.51,48.784 1432.78,52.058C384.786,55.486 25.572,912.927 54.276,1487.45C78.431,1970.92 305.104,2431.63 648.689,2758.92C1049.51,3140.72 1572.84,3265.4 2004.6,3249.8C2326.4,3238.18 2862.88,3174.56 3270.49,2759.05C3736.03,2284.5 3849.3,1810.17 3879.22,1324.5C3898.97,1003.69 3804.03,903.928 3728.02,898.258C3491.15,880.587 2731.6,898.197 2731.6,898.197Z" style="fill:white;"/>
    </g>
    <g>
        <g id="Layer2">
            <g>
                <path d="M3528.99,1326.36C3528.99,1326.36 3473.61,2837.17 1966.88,2884.37C964.264,2915.78 365.135,1852.87 456.047,1627.33L205.742,1489.41C205.742,1489.41 397.765,3105.8 1966.88,3084.61C3259.63,3067.15 3715.48,2043.13 3728.02,1324.5L3528.99,1326.36Z" style="fill:rgb(80,110,174);"/>
                <g id="Layer1">
                    <path d="M2646.34,1687.65C2518.36,2233.36 2027.54,2640.3 1442.31,2640.3C759.831,2640.3 205.742,2086.86 205.742,1405.18C205.742,723.498 759.831,170.058 1442.31,170.058C1978.2,170.058 2434.92,511.275 2606.43,987.918L2361.72,987.918C2202.68,639.236 1850.64,396.624 1442.31,396.624C885.023,396.624 432.574,848.543 432.574,1405.18C432.574,1961.82 885.023,2413.74 1442.31,2413.74C1901.47,2413.74 2289.45,2106.97 2411.85,1687.65L2646.34,1687.65Z" style="fill:rgb(42,45,114);"/>
                </g>
                <g id="Layer3">
                    <g transform="matrix(0.942665,0,0,0.82907,50.1073,208.522)">
                        <text x="498.52px" y="1249.17px" style="font-family:'Helvetica';font-size:438.004px;">Betreuungsverein</text>
                    </g>
                    <g transform="matrix(0.919609,0,0,0.865181,-159.128,-184.392)">
                        <text x="736.347px" y="2085.91px" style="font-family:'Helvetica';font-size:438.004px;">Heidenheim e.V.</text>
                    </g>
                </g>
            </g>
        </g>
    </g>
</svg>
